<svg id="Layer_1" data-name="Layer 1" xmlns="http://www.w3.org/2000/svg" xmlns:xlink="http://www.w3.org/1999/xlink" viewBox="0 0 35 35"><defs><style>.cls-1{fill:#212121;}.cls-2{opacity:0.04;}.cls-3{fill:url(#linear-gradient);}.cls-4{opacity:0.12;}.cls-5{fill:url(#linear-gradient-2);}</style><linearGradient id="linear-gradient" x1="17.5" y1="33" x2="17.5" y2="2" gradientUnits="userSpaceOnUse"><stop offset="0"/><stop offset="0.14" stop-opacity="0.63"/><stop offset="1" stop-opacity="0"/></linearGradient><linearGradient id="linear-gradient-2" x1="17.5" y1="33" x2="17.5" y2="2" gradientUnits="userSpaceOnUse"><stop offset="0" stop-color="#fff" stop-opacity="0"/><stop offset="0.23" stop-color="#fff" stop-opacity="0.01"/><stop offset="0.36" stop-color="#fff" stop-opacity="0.04"/><stop offset="0.47" stop-color="#fff" stop-opacity="0.1"/><stop offset="0.57" stop-color="#fff" stop-opacity="0.18"/><stop offset="0.67" stop-color="#fff" stop-opacity="0.28"/><stop offset="0.75" stop-color="#fff" stop-opacity="0.41"/><stop offset="0.83" stop-color="#fff" stop-opacity="0.56"/><stop offset="0.91" stop-color="#fff" stop-opacity="0.74"/><stop offset="0.98" stop-color="#fff" stop-opacity="0.93"/><stop offset="1" stop-color="#fff"/></linearGradient></defs><title>Mockator icons</title><path class="cls-1" d="M17.5,2A15.5,15.5,0,1,1,2,17.5,15.5,15.5,0,0,1,17.5,2m0-1A16.5,16.5,0,1,0,34,17.5,16.52,16.52,0,0,0,17.5,1h0Z"/><g class="cls-2"><path class="cls-3" d="M17.5,2.5a15,15,0,1,1-15,15,15,15,0,0,1,15-15m0-.5A15.5,15.5,0,1,0,33,17.5,15.5,15.5,0,0,0,17.5,2h0Z"/></g><g class="cls-4"><path class="cls-5" d="M17.5,2.5a15,15,0,1,1-15,15,15,15,0,0,1,15-15m0-.5A15.5,15.5,0,1,0,33,17.5,15.5,15.5,0,0,0,17.5,2h0Z"/></g><path class="cls-1" d="M22.92,18.27H18.27v4.64H16.73V18.27H12.08V16.73h4.64V12.08h1.55v4.64h4.64v1.55Z"/></svg>