<svg id="Layer_1" data-name="Layer 1" xmlns="http://www.w3.org/2000/svg" viewBox="0 0 70 70"><defs><style>.cls-1{fill:#212121;}.cls-2{fill:#fff;}</style></defs><title>Mockator icons</title><circle class="cls-1" cx="35" cy="35" r="35"/><path class="cls-2" d="M24.23,28.72H26v8a2.83,2.83,0,0,0,3.11,3,2.85,2.85,0,0,0,3.15-3V28.72H34v8c0,2.75-2,4.58-4.86,4.58s-4.86-1.84-4.86-4.58v-8Z"/><path class="cls-2" d="M39.74,34.7l-3.66-6h2L40,32.06c0.38,0.66.79,1.47,0.79,1.47h0s0.35-.79.75-1.47l1.94-3.34h2l-3.66,6,3.9,6.37h-2l-2.24-3.8c-0.4-.7-0.79-1.42-0.79-1.42h0s-0.33.73-.73,1.42l-2.24,3.8H35.84Z"/></svg>